<svg aria-roledescription="er" role="graphics-document document" viewBox="-142.02275848388672 0 1344.111328125 1030" style="max-width: 1344.11px; background-color: white;" xmlns:xlink="http://www.w3.org/1999/xlink" xmlns="http://www.w3.org/2000/svg" width="100%" id="my-svg"><style>#my-svg{font-family:"trebuchet ms",verdana,arial,sans-serif;font-size:16px;fill:#333;}#my-svg .error-icon{fill:#552222;}#my-svg .error-text{fill:#552222;stroke:#552222;}#my-svg .edge-thickness-normal{stroke-width:2px;}#my-svg .edge-thickness-thick{stroke-width:3.5px;}#my-svg .edge-pattern-solid{stroke-dasharray:0;}#my-svg .edge-pattern-dashed{stroke-dasharray:3;}#my-svg .edge-pattern-dotted{stroke-dasharray:2;}#my-svg .marker{fill:#333333;stroke:#333333;}#my-svg .marker.cross{stroke:#333333;}#my-svg svg{font-family:"trebuchet ms",verdana,arial,sans-serif;font-size:16px;}#my-svg .entityBox{fill:#ECECFF;stroke:#9370DB;}#my-svg .attributeBoxOdd{fill:#ffffff;stroke:#9370DB;}#my-svg .attributeBoxEven{fill:#f2f2f2;stroke:#9370DB;}#my-svg .relationshipLabelBox{fill:hsl(80, 100%, 96.2745098039%);opacity:0.7;background-color:hsl(80, 100%, 96.2745098039%);}#my-svg .relationshipLabelBox rect{opacity:0.5;}#my-svg .relationshipLine{stroke:#333333;}#my-svg .entityTitleText{text-anchor:middle;font-size:18px;fill:#333;}#my-svg #MD_PARENT_START{fill:#f5f5f5!important;stroke:#333333!important;stroke-width:1;}#my-svg #MD_PARENT_END{fill:#f5f5f5!important;stroke:#333333!important;stroke-width:1;}#my-svg :root{--mermaid-font-family:"trebuchet ms",verdana,arial,sans-serif;}</style><g/><defs><marker orient="auto" markerHeight="240" markerWidth="190" refY="7" refX="0" id="MD_PARENT_START"><path d="M 18,7 L9,13 L1,7 L9,1 Z"/></marker></defs><defs><marker orient="auto" markerHeight="28" markerWidth="20" refY="7" refX="19" id="MD_PARENT_END"><path d="M 18,7 L9,13 L1,7 L9,1 Z"/></marker></defs><defs><marker orient="auto" markerHeight="18" markerWidth="18" refY="9" refX="0" id="ONLY_ONE_START"><path d="M9,0 L9,18 M15,0 L15,18" fill="none" stroke="gray"/></marker></defs><defs><marker orient="auto" markerHeight="18" markerWidth="18" refY="9" refX="18" id="ONLY_ONE_END"><path d="M3,0 L3,18 M9,0 L9,18" fill="none" stroke="gray"/></marker></defs><defs><marker orient="auto" markerHeight="18" markerWidth="30" refY="9" refX="0" id="ZERO_OR_ONE_START"><circle r="6" cy="9" cx="21" fill="white" stroke="gray"/><path d="M9,0 L9,18" fill="none" stroke="gray"/></marker></defs><defs><marker orient="auto" markerHeight="18" markerWidth="30" refY="9" refX="30" id="ZERO_OR_ONE_END"><circle r="6" cy="9" cx="9" fill="white" stroke="gray"/><path d="M21,0 L21,18" fill="none" stroke="gray"/></marker></defs><defs><marker orient="auto" markerHeight="36" markerWidth="45" refY="18" refX="18" id="ONE_OR_MORE_START"><path d="M0,18 Q 18,0 36,18 Q 18,36 0,18 M42,9 L42,27" fill="none" stroke="gray"/></marker></defs><defs><marker orient="auto" markerHeight="36" markerWidth="45" refY="18" refX="27" id="ONE_OR_MORE_END"><path d="M3,9 L3,27 M9,18 Q27,0 45,18 Q27,36 9,18" fill="none" stroke="gray"/></marker></defs><defs><marker orient="auto" markerHeight="36" markerWidth="57" refY="18" refX="18" id="ZERO_OR_MORE_START"><circle r="6" cy="18" cx="48" fill="white" stroke="gray"/><path d="M0,18 Q18,0 36,18 Q18,36 0,18" fill="none" stroke="gray"/></marker></defs><defs><marker orient="auto" markerHeight="36" markerWidth="57" refY="18" refX="39" id="ZERO_OR_MORE_END"><circle r="6" cy="18" cx="9" fill="white" stroke="gray"/><path d="M21,18 Q39,0 57,18 Q39,36 21,18" fill="none" stroke="gray"/></marker></defs><path style="stroke: gray; fill: none;" marker-start="url(#ONLY_ONE_START)" marker-end="url(#ZERO_OR_MORE_END)" d="M380.126,176L385.699,184.333C391.272,192.667,402.418,209.333,414.629,233.333C426.841,257.333,440.117,288.667,446.756,304.333L453.394,320" class="er relationshipLine"/><path style="stroke: gray; fill: none;" marker-start="url(#ONLY_ONE_START)" marker-end="url(#ZERO_OR_MORE_END)" d="M256.759,119.598L198.297,137.332C139.835,155.066,22.911,190.533,-35.551,238.766C-94.013,287,-94.013,348,-94.013,409C-94.013,470,-94.013,531,-94.013,581C-94.013,631,-94.013,670,-94.013,709C-94.013,748,-94.013,787,-53.748,821.402C-13.483,855.804,67.047,885.608,107.311,900.51L147.576,915.412" class="er relationshipLine"/><path style="stroke: gray; fill: none;" marker-start="url(#ONLY_ONE_START)" marker-end="url(#ZERO_OR_MORE_END)" d="M399.165,113.162L487.484,131.968C575.804,150.774,752.442,188.387,840.761,237.694C929.081,287,929.081,348,929.081,409C929.081,470,929.081,531,929.081,581C929.081,631,929.081,670,929.081,709C929.081,748,929.081,787,941.005,815.801C952.93,844.603,976.78,863.205,988.705,872.507L1000.629,881.808" class="er relationshipLine"/><path style="stroke: gray; fill: none;" marker-start="url(#ONLY_ONE_START)" marker-end="url(#ZERO_OR_MORE_END)" d="M256.759,129.868L220.962,145.89C185.165,161.912,113.57,193.956,80.049,218.311C46.529,242.667,51.082,259.333,53.359,267.667L55.636,276" class="er relationshipLine"/><path style="stroke: gray; fill: none;" marker-start="url(#ONLY_ONE_START)" marker-end="url(#ZERO_OR_MORE_END)" d="M665.178,675.335L687.905,661.446C710.632,647.557,756.085,619.778,738.94,582.385C721.795,544.991,642.052,497.983,602.181,474.478L562.309,450.974" class="er relationshipLine"/><path style="stroke: gray; fill: none;" marker-start="url(#ONLY_ONE_START)" marker-end="url(#ZERO_OR_MORE_END)" d="M555.008,721.439L477.836,738.866C400.664,756.293,246.319,791.146,180.456,818.74C114.593,846.333,137.21,866.667,148.519,876.833L159.828,887" class="er relationshipLine"/><path style="stroke: gray; fill: none;" marker-start="url(#ONLY_ONE_START)" marker-end="url(#ZERO_OR_MORE_END)" d="M665.178,724.382L725.829,741.318C786.479,758.255,907.78,792.127,971.992,817.397C1036.203,842.667,1043.326,859.333,1046.887,867.667L1050.448,876" class="er relationshipLine"/><path style="stroke: gray; fill: none;" marker-start="url(#ZERO_OR_MORE_START)" marker-end="url(#ONLY_ONE_END)" d="M562.309,338.795L581.376,319.996C600.442,301.197,638.575,263.598,611.384,227.821C584.194,192.045,491.679,158.089,445.422,141.111L399.165,124.134" class="er relationshipLine"/><path style="stroke: gray; fill: none;" marker-start="url(#ZERO_OR_MORE_START)" marker-end="url(#ONLY_ONE_END)" d="M477.711,498L475.353,513.667C472.995,529.333,468.28,560.667,481.162,588.503C494.045,616.339,524.527,640.677,539.768,652.847L555.008,665.016" class="er relationshipLine"/><path style="stroke: gray; fill: none;" marker-start="url(#ZERO_OR_MORE_START)" marker-end="url(#ONLY_ONE_END)" d="M248.847,887L253.7,876.833C258.552,866.667,268.257,846.333,273.11,816.667C277.962,787,277.962,748,277.962,709C277.962,670,277.962,631,277.962,581C277.962,531,277.962,470,277.962,409C277.962,348,277.962,287,281.218,248.167C284.473,209.333,290.983,192.667,294.238,184.333L297.494,176" class="er relationshipLine"/><path style="stroke: gray; fill: none;" marker-start="url(#ZERO_OR_MORE_START)" marker-end="url(#ONLY_ONE_END)" d="M296.662,920.52L348.901,904.767C401.139,889.014,505.616,857.507,557.855,833.42C610.093,809.333,610.093,792.667,610.093,784.333L610.093,776" class="er relationshipLine"/><path style="stroke: gray; fill: none;" marker-start="url(#ZERO_OR_MORE_START)" marker-end="url(#ONLY_ONE_END)" d="M1107.713,876L1111.274,867.667C1114.836,859.333,1121.958,842.667,1125.519,814.833C1129.081,787,1129.081,748,1129.081,709C1129.081,670,1129.081,631,1129.081,581C1129.081,531,1129.081,470,1129.081,409C1129.081,348,1129.081,287,1007.428,237.063C885.775,187.126,642.47,148.251,520.818,128.814L399.165,109.377" class="er relationshipLine"/><path style="stroke: gray; fill: none;" marker-start="url(#ZERO_OR_MORE_START)" marker-end="url(#ONLY_ONE_END)" d="M1157.532,881.808L1169.457,872.507C1181.381,863.205,1205.231,844.603,1123.172,817.537C1041.113,790.471,853.146,754.941,759.162,737.177L665.178,719.412" class="er relationshipLine"/><path style="stroke: gray; fill: none;" marker-start="url(#ZERO_OR_MORE_START)" marker-end="url(#ONLY_ONE_END)" d="M128.314,276L130.591,267.667C132.867,259.333,137.421,242.667,158.829,221.167C180.236,199.668,218.498,173.335,237.629,160.169L256.759,147.003" class="er relationshipLine"/><path style="stroke: gray; fill: none;" marker-start="url(#ZERO_OR_MORE_START)" marker-end="url(#ONLY_ONE_END)" d="M718.997,476L716.087,495.333C713.177,514.667,707.358,553.333,697.935,581C688.512,608.667,675.486,625.333,668.972,633.667L662.459,642" class="er relationshipLine"/><g transform="translate(256.75940704345703,20 )" id="entity-USERS-1e82e395-936c-57a7-8ba9-b08f03574b93"><rect height="156" width="142.40579223632812" y="0" x="0" class="er entityBox"/><text style="dominant-baseline: middle; text-anchor: middle; font-size: 12px;" transform="translate(71.20289611816406,12)" y="0" x="0" id="text-entity-USERS-1e82e395-936c-57a7-8ba9-b08f03574b93" class="er entityLabel">USERS</text><rect height="22" width="80.85554504394531" y="24" x="0" class="er attributeBoxOdd"/><text style="dominant-baseline: middle; font-size: 10.2px;" transform="translate(5,35)" y="0" x="0" id="text-entity-USERS-1e82e395-936c-57a7-8ba9-b08f03574b93-attr-1-type" class="er entityLabel">id</text><rect height="22" width="61.55024719238281" y="24" x="80.85554504394531" class="er attributeBoxOdd"/><text style="dominant-baseline: middle; font-size: 10.2px;" transform="translate(85.85554504394531,35)" y="0" x="0" id="text-entity-USERS-1e82e395-936c-57a7-8ba9-b08f03574b93-attr-1-name" class="er entityLabel">UUID</text><rect height="22" width="80.85554504394531" y="46" x="0" class="er attributeBoxEven"/><text style="dominant-baseline: middle; font-size: 10.2px;" transform="translate(5,57)" y="0" x="0" id="text-entity-USERS-1e82e395-936c-57a7-8ba9-b08f03574b93-attr-2-type" class="er entityLabel">name</text><rect height="22" width="61.55024719238281" y="46" x="80.85554504394531" class="er attributeBoxEven"/><text style="dominant-baseline: middle; font-size: 10.2px;" transform="translate(85.85554504394531,57)" y="0" x="0" id="text-entity-USERS-1e82e395-936c-57a7-8ba9-b08f03574b93-attr-2-name" class="er entityLabel">TEXT</text><rect height="22" width="80.85554504394531" y="68" x="0" class="er attributeBoxOdd"/><text style="dominant-baseline: middle; font-size: 10.2px;" transform="translate(5,79)" y="0" x="0" id="text-entity-USERS-1e82e395-936c-57a7-8ba9-b08f03574b93-attr-3-type" class="er entityLabel">email</text><rect height="22" width="61.55024719238281" y="68" x="80.85554504394531" class="er attributeBoxOdd"/><text style="dominant-baseline: middle; font-size: 10.2px;" transform="translate(85.85554504394531,79)" y="0" x="0" id="text-entity-USERS-1e82e395-936c-57a7-8ba9-b08f03574b93-attr-3-name" class="er entityLabel">TEXT</text><rect height="22" width="80.85554504394531" y="90" x="0" class="er attributeBoxEven"/><text style="dominant-baseline: middle; font-size: 10.2px;" transform="translate(5,101)" y="0" x="0" id="text-entity-USERS-1e82e395-936c-57a7-8ba9-b08f03574b93-attr-4-type" class="er entityLabel">emailVerified</text><rect height="22" width="61.55024719238281" y="90" x="80.85554504394531" class="er attributeBoxEven"/><text style="dominant-baseline: middle; font-size: 10.2px;" transform="translate(85.85554504394531,101)" y="0" x="0" id="text-entity-USERS-1e82e395-936c-57a7-8ba9-b08f03574b93-attr-4-name" class="er entityLabel">TIMESTAMP</text><rect height="22" width="80.85554504394531" y="112" x="0" class="er attributeBoxOdd"/><text style="dominant-baseline: middle; font-size: 10.2px;" transform="translate(5,123)" y="0" x="0" id="text-entity-USERS-1e82e395-936c-57a7-8ba9-b08f03574b93-attr-5-type" class="er entityLabel">organization_id</text><rect height="22" width="61.55024719238281" y="112" x="80.85554504394531" class="er attributeBoxOdd"/><text style="dominant-baseline: middle; font-size: 10.2px;" transform="translate(85.85554504394531,123)" y="0" x="0" id="text-entity-USERS-1e82e395-936c-57a7-8ba9-b08f03574b93-attr-5-name" class="er entityLabel">UUID</text><rect height="22" width="80.85554504394531" y="134" x="0" class="er attributeBoxEven"/><text style="dominant-baseline: middle; font-size: 10.2px;" transform="translate(5,145)" y="0" x="0" id="text-entity-USERS-1e82e395-936c-57a7-8ba9-b08f03574b93-attr-6-type" class="er entityLabel">image</text><rect height="22" width="61.55024719238281" y="134" x="80.85554504394531" class="er attributeBoxEven"/><text style="dominant-baseline: middle; font-size: 10.2px;" transform="translate(85.85554504394531,145)" y="0" x="0" id="text-entity-USERS-1e82e395-936c-57a7-8ba9-b08f03574b93-attr-6-name" class="er entityLabel">TEXT</text></g><g transform="translate(555.0084800720215,642 )" id="entity-ORGANIZATION-a3e762df-85cf-52a9-a67f-c9cd8f228ee5"><rect height="134" width="110.169921875" y="0" x="0" class="er entityBox"/><text style="dominant-baseline: middle; text-anchor: middle; font-size: 12px;" transform="translate(55.0849609375,12)" y="0" x="0" id="text-entity-ORGANIZATION-a3e762df-85cf-52a9-a67f-c9cd8f228ee5" class="er entityLabel">ORGANIZATION</text><rect height="22" width="68.75685119628906" y="24" x="0" class="er attributeBoxOdd"/><text style="dominant-baseline: middle; font-size: 10.2px;" transform="translate(5,35)" y="0" x="0" id="text-entity-ORGANIZATION-a3e762df-85cf-52a9-a67f-c9cd8f228ee5-attr-1-type" class="er entityLabel">id</text><rect height="22" width="41.41307067871094" y="24" x="68.75685119628906" class="er attributeBoxOdd"/><text style="dominant-baseline: middle; font-size: 10.2px;" transform="translate(73.75685119628906,35)" y="0" x="0" id="text-entity-ORGANIZATION-a3e762df-85cf-52a9-a67f-c9cd8f228ee5-attr-1-name" class="er entityLabel">UUID</text><rect height="22" width="68.75685119628906" y="46" x="0" class="er attributeBoxEven"/><text style="dominant-baseline: middle; font-size: 10.2px;" transform="translate(5,57)" y="0" x="0" id="text-entity-ORGANIZATION-a3e762df-85cf-52a9-a67f-c9cd8f228ee5-attr-2-type" class="er entityLabel">name</text><rect height="22" width="41.41307067871094" y="46" x="68.75685119628906" class="er attributeBoxEven"/><text style="dominant-baseline: middle; font-size: 10.2px;" transform="translate(73.75685119628906,57)" y="0" x="0" id="text-entity-ORGANIZATION-a3e762df-85cf-52a9-a67f-c9cd8f228ee5-attr-2-name" class="er entityLabel">TEXT</text><rect height="22" width="68.75685119628906" y="68" x="0" class="er attributeBoxOdd"/><text style="dominant-baseline: middle; font-size: 10.2px;" transform="translate(5,79)" y="0" x="0" id="text-entity-ORGANIZATION-a3e762df-85cf-52a9-a67f-c9cd8f228ee5-attr-3-type" class="er entityLabel">slug</text><rect height="22" width="41.41307067871094" y="68" x="68.75685119628906" class="er attributeBoxOdd"/><text style="dominant-baseline: middle; font-size: 10.2px;" transform="translate(73.75685119628906,79)" y="0" x="0" id="text-entity-ORGANIZATION-a3e762df-85cf-52a9-a67f-c9cd8f228ee5-attr-3-name" class="er entityLabel">TEXT</text><rect height="22" width="68.75685119628906" y="90" x="0" class="er attributeBoxEven"/><text style="dominant-baseline: middle; font-size: 10.2px;" transform="translate(5,101)" y="0" x="0" id="text-entity-ORGANIZATION-a3e762df-85cf-52a9-a67f-c9cd8f228ee5-attr-4-type" class="er entityLabel">description</text><rect height="22" width="41.41307067871094" y="90" x="68.75685119628906" class="er attributeBoxEven"/><text style="dominant-baseline: middle; font-size: 10.2px;" transform="translate(73.75685119628906,101)" y="0" x="0" id="text-entity-ORGANIZATION-a3e762df-85cf-52a9-a67f-c9cd8f228ee5-attr-4-name" class="er entityLabel">TEXT</text><rect height="22" width="68.75685119628906" y="112" x="0" class="er attributeBoxOdd"/><text style="dominant-baseline: middle; font-size: 10.2px;" transform="translate(5,123)" y="0" x="0" id="text-entity-ORGANIZATION-a3e762df-85cf-52a9-a67f-c9cd8f228ee5-attr-5-type" class="er entityLabel">otp</text><rect height="22" width="41.41307067871094" y="112" x="68.75685119628906" class="er attributeBoxOdd"/><text style="dominant-baseline: middle; font-size: 10.2px;" transform="translate(73.75685119628906,123)" y="0" x="0" id="text-entity-ORGANIZATION-a3e762df-85cf-52a9-a67f-c9cd8f228ee5-attr-5-name" class="er entityLabel">TEXT</text></g><g transform="translate(147.57605361938477,887 )" id="entity-USERORGANIZATIONS-3ec282ac-190c-5a44-a928-17bdf326c7bc"><rect height="112" width="149.0859375" y="0" x="0" class="er entityBox"/><text style="dominant-baseline: middle; text-anchor: middle; font-size: 12px;" transform="translate(74.54296875,12)" y="0" x="0" id="text-entity-USERORGANIZATIONS-3ec282ac-190c-5a44-a928-17bdf326c7bc" class="er entityLabel">USER_ORGANIZATIONS</text><rect height="22" width="97.939208984375" y="24" x="0" class="er attributeBoxOdd"/><text style="dominant-baseline: middle; font-size: 10.2px;" transform="translate(5,35)" y="0" x="0" id="text-entity-USERORGANIZATIONS-3ec282ac-190c-5a44-a928-17bdf326c7bc-attr-1-type" class="er entityLabel">id</text><rect height="22" width="51.146728515625" y="24" x="97.939208984375" class="er attributeBoxOdd"/><text style="dominant-baseline: middle; font-size: 10.2px;" transform="translate(102.939208984375,35)" y="0" x="0" id="text-entity-USERORGANIZATIONS-3ec282ac-190c-5a44-a928-17bdf326c7bc-attr-1-name" class="er entityLabel">UUID</text><rect height="22" width="97.939208984375" y="46" x="0" class="er attributeBoxEven"/><text style="dominant-baseline: middle; font-size: 10.2px;" transform="translate(5,57)" y="0" x="0" id="text-entity-USERORGANIZATIONS-3ec282ac-190c-5a44-a928-17bdf326c7bc-attr-2-type" class="er entityLabel">user_id</text><rect height="22" width="51.146728515625" y="46" x="97.939208984375" class="er attributeBoxEven"/><text style="dominant-baseline: middle; font-size: 10.2px;" transform="translate(102.939208984375,57)" y="0" x="0" id="text-entity-USERORGANIZATIONS-3ec282ac-190c-5a44-a928-17bdf326c7bc-attr-2-name" class="er entityLabel">UUID</text><rect height="22" width="97.939208984375" y="68" x="0" class="er attributeBoxOdd"/><text style="dominant-baseline: middle; font-size: 10.2px;" transform="translate(5,79)" y="0" x="0" id="text-entity-USERORGANIZATIONS-3ec282ac-190c-5a44-a928-17bdf326c7bc-attr-3-type" class="er entityLabel">organization_id</text><rect height="22" width="51.146728515625" y="68" x="97.939208984375" class="er attributeBoxOdd"/><text style="dominant-baseline: middle; font-size: 10.2px;" transform="translate(102.939208984375,79)" y="0" x="0" id="text-entity-USERORGANIZATIONS-3ec282ac-190c-5a44-a928-17bdf326c7bc-attr-3-name" class="er entityLabel">UUID</text><rect height="22" width="97.939208984375" y="90" x="0" class="er attributeBoxEven"/><text style="dominant-baseline: middle; font-size: 10.2px;" transform="translate(5,101)" y="0" x="0" id="text-entity-USERORGANIZATIONS-3ec282ac-190c-5a44-a928-17bdf326c7bc-attr-4-type" class="er entityLabel">role</text><rect height="22" width="51.146728515625" y="90" x="97.939208984375" class="er attributeBoxEven"/><text style="dominant-baseline: middle; font-size: 10.2px;" transform="translate(102.939208984375,101)" y="0" x="0" id="text-entity-USERORGANIZATIONS-3ec282ac-190c-5a44-a928-17bdf326c7bc-attr-4-name" class="er entityLabel">TEXT</text></g><g transform="translate(419.90333557128906,320 )" id="entity-POSTS-8b9e29bd-1bb5-5e7b-b4e1-8fd7a8ad1a35"><rect height="178" width="142.40579223632812" y="0" x="0" class="er entityBox"/><text style="dominant-baseline: middle; text-anchor: middle; font-size: 12px;" transform="translate(71.20289611816406,12)" y="0" x="0" id="text-entity-POSTS-8b9e29bd-1bb5-5e7b-b4e1-8fd7a8ad1a35" class="er entityLabel">POSTS</text><rect height="22" width="80.85554504394531" y="24" x="0" class="er attributeBoxOdd"/><text style="dominant-baseline: middle; font-size: 10.2px;" transform="translate(5,35)" y="0" x="0" id="text-entity-POSTS-8b9e29bd-1bb5-5e7b-b4e1-8fd7a8ad1a35-attr-1-type" class="er entityLabel">id</text><rect height="22" width="61.55024719238281" y="24" x="80.85554504394531" class="er attributeBoxOdd"/><text style="dominant-baseline: middle; font-size: 10.2px;" transform="translate(85.85554504394531,35)" y="0" x="0" id="text-entity-POSTS-8b9e29bd-1bb5-5e7b-b4e1-8fd7a8ad1a35-attr-1-name" class="er entityLabel">UUID</text><rect height="22" width="80.85554504394531" y="46" x="0" class="er attributeBoxEven"/><text style="dominant-baseline: middle; font-size: 10.2px;" transform="translate(5,57)" y="0" x="0" id="text-entity-POSTS-8b9e29bd-1bb5-5e7b-b4e1-8fd7a8ad1a35-attr-2-type" class="er entityLabel">content</text><rect height="22" width="61.55024719238281" y="46" x="80.85554504394531" class="er attributeBoxEven"/><text style="dominant-baseline: middle; font-size: 10.2px;" transform="translate(85.85554504394531,57)" y="0" x="0" id="text-entity-POSTS-8b9e29bd-1bb5-5e7b-b4e1-8fd7a8ad1a35-attr-2-name" class="er entityLabel">TEXT</text><rect height="22" width="80.85554504394531" y="68" x="0" class="er attributeBoxOdd"/><text style="dominant-baseline: middle; font-size: 10.2px;" transform="translate(5,79)" y="0" x="0" id="text-entity-POSTS-8b9e29bd-1bb5-5e7b-b4e1-8fd7a8ad1a35-attr-3-type" class="er entityLabel">timestamp</text><rect height="22" width="61.55024719238281" y="68" x="80.85554504394531" class="er attributeBoxOdd"/><text style="dominant-baseline: middle; font-size: 10.2px;" transform="translate(85.85554504394531,79)" y="0" x="0" id="text-entity-POSTS-8b9e29bd-1bb5-5e7b-b4e1-8fd7a8ad1a35-attr-3-name" class="er entityLabel">TIMESTAMP</text><rect height="22" width="80.85554504394531" y="90" x="0" class="er attributeBoxEven"/><text style="dominant-baseline: middle; font-size: 10.2px;" transform="translate(5,101)" y="0" x="0" id="text-entity-POSTS-8b9e29bd-1bb5-5e7b-b4e1-8fd7a8ad1a35-attr-4-type" class="er entityLabel">status</text><rect height="22" width="61.55024719238281" y="90" x="80.85554504394531" class="er attributeBoxEven"/><text style="dominant-baseline: middle; font-size: 10.2px;" transform="translate(85.85554504394531,101)" y="0" x="0" id="text-entity-POSTS-8b9e29bd-1bb5-5e7b-b4e1-8fd7a8ad1a35-attr-4-name" class="er entityLabel">BOOLEAN</text><rect height="22" width="80.85554504394531" y="112" x="0" class="er attributeBoxOdd"/><text style="dominant-baseline: middle; font-size: 10.2px;" transform="translate(5,123)" y="0" x="0" id="text-entity-POSTS-8b9e29bd-1bb5-5e7b-b4e1-8fd7a8ad1a35-attr-5-type" class="er entityLabel">organization_id</text><rect height="22" width="61.55024719238281" y="112" x="80.85554504394531" class="er attributeBoxOdd"/><text style="dominant-baseline: middle; font-size: 10.2px;" transform="translate(85.85554504394531,123)" y="0" x="0" id="text-entity-POSTS-8b9e29bd-1bb5-5e7b-b4e1-8fd7a8ad1a35-attr-5-name" class="er entityLabel">UUID</text><rect height="22" width="80.85554504394531" y="134" x="0" class="er attributeBoxEven"/><text style="dominant-baseline: middle; font-size: 10.2px;" transform="translate(5,145)" y="0" x="0" id="text-entity-POSTS-8b9e29bd-1bb5-5e7b-b4e1-8fd7a8ad1a35-attr-6-type" class="er entityLabel">updatedBy</text><rect height="22" width="61.55024719238281" y="134" x="80.85554504394531" class="er attributeBoxEven"/><text style="dominant-baseline: middle; font-size: 10.2px;" transform="translate(85.85554504394531,145)" y="0" x="0" id="text-entity-POSTS-8b9e29bd-1bb5-5e7b-b4e1-8fd7a8ad1a35-attr-6-name" class="er entityLabel">UUID</text><rect height="22" width="80.85554504394531" y="156" x="0" class="er attributeBoxOdd"/><text style="dominant-baseline: middle; font-size: 10.2px;" transform="translate(5,167)" y="0" x="0" id="text-entity-POSTS-8b9e29bd-1bb5-5e7b-b4e1-8fd7a8ad1a35-attr-7-type" class="er entityLabel">user_id</text><rect height="22" width="61.55024719238281" y="156" x="80.85554504394531" class="er attributeBoxOdd"/><text style="dominant-baseline: middle; font-size: 10.2px;" transform="translate(85.85554504394531,167)" y="0" x="0" id="text-entity-POSTS-8b9e29bd-1bb5-5e7b-b4e1-8fd7a8ad1a35-attr-7-name" class="er entityLabel">UUID</text></g><g transform="translate(20,276 )" id="entity-ACCOUNTS-ab5fcd47-121e-5e80-a051-e8e442829b86"><rect height="266" width="143.94973754882812" y="0" x="0" class="er entityBox"/><text style="dominant-baseline: middle; text-anchor: middle; font-size: 12px;" transform="translate(71.97486877441406,12)" y="0" x="0" id="text-entity-ACCOUNTS-ab5fcd47-121e-5e80-a051-e8e442829b86" class="er entityLabel">ACCOUNTS</text><rect height="22" width="93.85456848144531" y="24" x="0" class="er attributeBoxOdd"/><text style="dominant-baseline: middle; font-size: 10.2px;" transform="translate(5,35)" y="0" x="0" id="text-entity-ACCOUNTS-ab5fcd47-121e-5e80-a051-e8e442829b86-attr-1-type" class="er entityLabel">userId</text><rect height="22" width="50.09516906738281" y="24" x="93.85456848144531" class="er attributeBoxOdd"/><text style="dominant-baseline: middle; font-size: 10.2px;" transform="translate(98.85456848144531,35)" y="0" x="0" id="text-entity-ACCOUNTS-ab5fcd47-121e-5e80-a051-e8e442829b86-attr-1-name" class="er entityLabel">UUID</text><rect height="22" width="93.85456848144531" y="46" x="0" class="er attributeBoxEven"/><text style="dominant-baseline: middle; font-size: 10.2px;" transform="translate(5,57)" y="0" x="0" id="text-entity-ACCOUNTS-ab5fcd47-121e-5e80-a051-e8e442829b86-attr-2-type" class="er entityLabel">type</text><rect height="22" width="50.09516906738281" y="46" x="93.85456848144531" class="er attributeBoxEven"/><text style="dominant-baseline: middle; font-size: 10.2px;" transform="translate(98.85456848144531,57)" y="0" x="0" id="text-entity-ACCOUNTS-ab5fcd47-121e-5e80-a051-e8e442829b86-attr-2-name" class="er entityLabel">TEXT</text><rect height="22" width="93.85456848144531" y="68" x="0" class="er attributeBoxOdd"/><text style="dominant-baseline: middle; font-size: 10.2px;" transform="translate(5,79)" y="0" x="0" id="text-entity-ACCOUNTS-ab5fcd47-121e-5e80-a051-e8e442829b86-attr-3-type" class="er entityLabel">provider</text><rect height="22" width="50.09516906738281" y="68" x="93.85456848144531" class="er attributeBoxOdd"/><text style="dominant-baseline: middle; font-size: 10.2px;" transform="translate(98.85456848144531,79)" y="0" x="0" id="text-entity-ACCOUNTS-ab5fcd47-121e-5e80-a051-e8e442829b86-attr-3-name" class="er entityLabel">TEXT</text><rect height="22" width="93.85456848144531" y="90" x="0" class="er attributeBoxEven"/><text style="dominant-baseline: middle; font-size: 10.2px;" transform="translate(5,101)" y="0" x="0" id="text-entity-ACCOUNTS-ab5fcd47-121e-5e80-a051-e8e442829b86-attr-4-type" class="er entityLabel">providerAccountId</text><rect height="22" width="50.09516906738281" y="90" x="93.85456848144531" class="er attributeBoxEven"/><text style="dominant-baseline: middle; font-size: 10.2px;" transform="translate(98.85456848144531,101)" y="0" x="0" id="text-entity-ACCOUNTS-ab5fcd47-121e-5e80-a051-e8e442829b86-attr-4-name" class="er entityLabel">TEXT</text><rect height="22" width="93.85456848144531" y="112" x="0" class="er attributeBoxOdd"/><text style="dominant-baseline: middle; font-size: 10.2px;" transform="translate(5,123)" y="0" x="0" id="text-entity-ACCOUNTS-ab5fcd47-121e-5e80-a051-e8e442829b86-attr-5-type" class="er entityLabel">refresh_token</text><rect height="22" width="50.09516906738281" y="112" x="93.85456848144531" class="er attributeBoxOdd"/><text style="dominant-baseline: middle; font-size: 10.2px;" transform="translate(98.85456848144531,123)" y="0" x="0" id="text-entity-ACCOUNTS-ab5fcd47-121e-5e80-a051-e8e442829b86-attr-5-name" class="er entityLabel">TEXT</text><rect height="22" width="93.85456848144531" y="134" x="0" class="er attributeBoxEven"/><text style="dominant-baseline: middle; font-size: 10.2px;" transform="translate(5,145)" y="0" x="0" id="text-entity-ACCOUNTS-ab5fcd47-121e-5e80-a051-e8e442829b86-attr-6-type" class="er entityLabel">access_token</text><rect height="22" width="50.09516906738281" y="134" x="93.85456848144531" class="er attributeBoxEven"/><text style="dominant-baseline: middle; font-size: 10.2px;" transform="translate(98.85456848144531,145)" y="0" x="0" id="text-entity-ACCOUNTS-ab5fcd47-121e-5e80-a051-e8e442829b86-attr-6-name" class="er entityLabel">TEXT</text><rect height="22" width="93.85456848144531" y="156" x="0" class="er attributeBoxOdd"/><text style="dominant-baseline: middle; font-size: 10.2px;" transform="translate(5,167)" y="0" x="0" id="text-entity-ACCOUNTS-ab5fcd47-121e-5e80-a051-e8e442829b86-attr-7-type" class="er entityLabel">expires_at</text><rect height="22" width="50.09516906738281" y="156" x="93.85456848144531" class="er attributeBoxOdd"/><text style="dominant-baseline: middle; font-size: 10.2px;" transform="translate(98.85456848144531,167)" y="0" x="0" id="text-entity-ACCOUNTS-ab5fcd47-121e-5e80-a051-e8e442829b86-attr-7-name" class="er entityLabel">INTEGER</text><rect height="22" width="93.85456848144531" y="178" x="0" class="er attributeBoxEven"/><text style="dominant-baseline: middle; font-size: 10.2px;" transform="translate(5,189)" y="0" x="0" id="text-entity-ACCOUNTS-ab5fcd47-121e-5e80-a051-e8e442829b86-attr-8-type" class="er entityLabel">token_type</text><rect height="22" width="50.09516906738281" y="178" x="93.85456848144531" class="er attributeBoxEven"/><text style="dominant-baseline: middle; font-size: 10.2px;" transform="translate(98.85456848144531,189)" y="0" x="0" id="text-entity-ACCOUNTS-ab5fcd47-121e-5e80-a051-e8e442829b86-attr-8-name" class="er entityLabel">TEXT</text><rect height="22" width="93.85456848144531" y="200" x="0" class="er attributeBoxOdd"/><text style="dominant-baseline: middle; font-size: 10.2px;" transform="translate(5,211)" y="0" x="0" id="text-entity-ACCOUNTS-ab5fcd47-121e-5e80-a051-e8e442829b86-attr-9-type" class="er entityLabel">scope</text><rect height="22" width="50.09516906738281" y="200" x="93.85456848144531" class="er attributeBoxOdd"/><text style="dominant-baseline: middle; font-size: 10.2px;" transform="translate(98.85456848144531,211)" y="0" x="0" id="text-entity-ACCOUNTS-ab5fcd47-121e-5e80-a051-e8e442829b86-attr-9-name" class="er entityLabel">TEXT</text><rect height="22" width="93.85456848144531" y="222" x="0" class="er attributeBoxEven"/><text style="dominant-baseline: middle; font-size: 10.2px;" transform="translate(5,233)" y="0" x="0" id="text-entity-ACCOUNTS-ab5fcd47-121e-5e80-a051-e8e442829b86-attr-10-type" class="er entityLabel">id_token</text><rect height="22" width="50.09516906738281" y="222" x="93.85456848144531" class="er attributeBoxEven"/><text style="dominant-baseline: middle; font-size: 10.2px;" transform="translate(98.85456848144531,233)" y="0" x="0" id="text-entity-ACCOUNTS-ab5fcd47-121e-5e80-a051-e8e442829b86-attr-10-name" class="er entityLabel">TEXT</text><rect height="22" width="93.85456848144531" y="244" x="0" class="er attributeBoxOdd"/><text style="dominant-baseline: middle; font-size: 10.2px;" transform="translate(5,255)" y="0" x="0" id="text-entity-ACCOUNTS-ab5fcd47-121e-5e80-a051-e8e442829b86-attr-11-type" class="er entityLabel">session_state</text><rect height="22" width="50.09516906738281" y="244" x="93.85456848144531" class="er attributeBoxOdd"/><text style="dominant-baseline: middle; font-size: 10.2px;" transform="translate(98.85456848144531,255)" y="0" x="0" id="text-entity-ACCOUNTS-ab5fcd47-121e-5e80-a051-e8e442829b86-attr-11-name" class="er entityLabel">TEXT</text></g><g transform="translate(1000.6294784545898,876 )" id="entity-ORGANIZATIONINVITES-d58c55bb-0f59-5be5-85d7-fb1f587ab04f"><rect height="134" width="156.90234375" y="0" x="0" class="er entityBox"/><text style="dominant-baseline: middle; text-anchor: middle; font-size: 12px;" transform="translate(78.451171875,12)" y="0" x="0" id="text-entity-ORGANIZATIONINVITES-d58c55bb-0f59-5be5-85d7-fb1f587ab04f" class="er entityLabel">ORGANIZATION_INVITES</text><rect height="22" width="88.10382080078125" y="24" x="0" class="er attributeBoxOdd"/><text style="dominant-baseline: middle; font-size: 10.2px;" transform="translate(5,35)" y="0" x="0" id="text-entity-ORGANIZATIONINVITES-d58c55bb-0f59-5be5-85d7-fb1f587ab04f-attr-1-type" class="er entityLabel">id</text><rect height="22" width="68.79852294921875" y="24" x="88.10382080078125" class="er attributeBoxOdd"/><text style="dominant-baseline: middle; font-size: 10.2px;" transform="translate(93.10382080078125,35)" y="0" x="0" id="text-entity-ORGANIZATIONINVITES-d58c55bb-0f59-5be5-85d7-fb1f587ab04f-attr-1-name" class="er entityLabel">UUID</text><rect height="22" width="88.10382080078125" y="46" x="0" class="er attributeBoxEven"/><text style="dominant-baseline: middle; font-size: 10.2px;" transform="translate(5,57)" y="0" x="0" id="text-entity-ORGANIZATIONINVITES-d58c55bb-0f59-5be5-85d7-fb1f587ab04f-attr-2-type" class="er entityLabel">user_id</text><rect height="22" width="68.79852294921875" y="46" x="88.10382080078125" class="er attributeBoxEven"/><text style="dominant-baseline: middle; font-size: 10.2px;" transform="translate(93.10382080078125,57)" y="0" x="0" id="text-entity-ORGANIZATIONINVITES-d58c55bb-0f59-5be5-85d7-fb1f587ab04f-attr-2-name" class="er entityLabel">UUID</text><rect height="22" width="88.10382080078125" y="68" x="0" class="er attributeBoxOdd"/><text style="dominant-baseline: middle; font-size: 10.2px;" transform="translate(5,79)" y="0" x="0" id="text-entity-ORGANIZATIONINVITES-d58c55bb-0f59-5be5-85d7-fb1f587ab04f-attr-3-type" class="er entityLabel">organization_id</text><rect height="22" width="68.79852294921875" y="68" x="88.10382080078125" class="er attributeBoxOdd"/><text style="dominant-baseline: middle; font-size: 10.2px;" transform="translate(93.10382080078125,79)" y="0" x="0" id="text-entity-ORGANIZATIONINVITES-d58c55bb-0f59-5be5-85d7-fb1f587ab04f-attr-3-name" class="er entityLabel">UUID</text><rect height="22" width="88.10382080078125" y="90" x="0" class="er attributeBoxEven"/><text style="dominant-baseline: middle; font-size: 10.2px;" transform="translate(5,101)" y="0" x="0" id="text-entity-ORGANIZATIONINVITES-d58c55bb-0f59-5be5-85d7-fb1f587ab04f-attr-4-type" class="er entityLabel">status</text><rect height="22" width="68.79852294921875" y="90" x="88.10382080078125" class="er attributeBoxEven"/><text style="dominant-baseline: middle; font-size: 10.2px;" transform="translate(93.10382080078125,101)" y="0" x="0" id="text-entity-ORGANIZATIONINVITES-d58c55bb-0f59-5be5-85d7-fb1f587ab04f-attr-4-name" class="er entityLabel">TEXT</text><rect height="22" width="88.10382080078125" y="112" x="0" class="er attributeBoxOdd"/><text style="dominant-baseline: middle; font-size: 10.2px;" transform="translate(5,123)" y="0" x="0" id="text-entity-ORGANIZATIONINVITES-d58c55bb-0f59-5be5-85d7-fb1f587ab04f-attr-5-type" class="er entityLabel">expires_at</text><rect height="22" width="68.79852294921875" y="112" x="88.10382080078125" class="er attributeBoxOdd"/><text style="dominant-baseline: middle; font-size: 10.2px;" transform="translate(93.10382080078125,123)" y="0" x="0" id="text-entity-ORGANIZATIONINVITES-d58c55bb-0f59-5be5-85d7-fb1f587ab04f-attr-5-name" class="er entityLabel">TIMESTAMP</text></g><g transform="translate(662.3091278076172,342 )" id="entity-SETTINGS-0bd4bbb4-2bd9-5599-bc1e-011c9f460522"><rect height="134" width="133.5430450439453" y="0" x="0" class="er entityBox"/><text style="dominant-baseline: middle; text-anchor: middle; font-size: 12px;" transform="translate(66.77152252197266,12)" y="0" x="0" id="text-entity-SETTINGS-0bd4bbb4-2bd9-5599-bc1e-011c9f460522" class="er entityLabel">SETTINGS</text><rect height="22" width="80.85554504394531" y="24" x="0" class="er attributeBoxOdd"/><text style="dominant-baseline: middle; font-size: 10.2px;" transform="translate(5,35)" y="0" x="0" id="text-entity-SETTINGS-0bd4bbb4-2bd9-5599-bc1e-011c9f460522-attr-1-type" class="er entityLabel">id</text><rect height="22" width="52.6875" y="24" x="80.85554504394531" class="er attributeBoxOdd"/><text style="dominant-baseline: middle; font-size: 10.2px;" transform="translate(85.85554504394531,35)" y="0" x="0" id="text-entity-SETTINGS-0bd4bbb4-2bd9-5599-bc1e-011c9f460522-attr-1-name" class="er entityLabel">UUID</text><rect height="22" width="80.85554504394531" y="46" x="0" class="er attributeBoxEven"/><text style="dominant-baseline: middle; font-size: 10.2px;" transform="translate(5,57)" y="0" x="0" id="text-entity-SETTINGS-0bd4bbb4-2bd9-5599-bc1e-011c9f460522-attr-2-type" class="er entityLabel">key</text><rect height="22" width="52.6875" y="46" x="80.85554504394531" class="er attributeBoxEven"/><text style="dominant-baseline: middle; font-size: 10.2px;" transform="translate(85.85554504394531,57)" y="0" x="0" id="text-entity-SETTINGS-0bd4bbb4-2bd9-5599-bc1e-011c9f460522-attr-2-name" class="er entityLabel">TEXT</text><rect height="22" width="80.85554504394531" y="68" x="0" class="er attributeBoxOdd"/><text style="dominant-baseline: middle; font-size: 10.2px;" transform="translate(5,79)" y="0" x="0" id="text-entity-SETTINGS-0bd4bbb4-2bd9-5599-bc1e-011c9f460522-attr-3-type" class="er entityLabel">value</text><rect height="22" width="52.6875" y="68" x="80.85554504394531" class="er attributeBoxOdd"/><text style="dominant-baseline: middle; font-size: 10.2px;" transform="translate(85.85554504394531,79)" y="0" x="0" id="text-entity-SETTINGS-0bd4bbb4-2bd9-5599-bc1e-011c9f460522-attr-3-name" class="er entityLabel">TEXT</text><rect height="22" width="80.85554504394531" y="90" x="0" class="er attributeBoxEven"/><text style="dominant-baseline: middle; font-size: 10.2px;" transform="translate(5,101)" y="0" x="0" id="text-entity-SETTINGS-0bd4bbb4-2bd9-5599-bc1e-011c9f460522-attr-4-type" class="er entityLabel">enabled</text><rect height="22" width="52.6875" y="90" x="80.85554504394531" class="er attributeBoxEven"/><text style="dominant-baseline: middle; font-size: 10.2px;" transform="translate(85.85554504394531,101)" y="0" x="0" id="text-entity-SETTINGS-0bd4bbb4-2bd9-5599-bc1e-011c9f460522-attr-4-name" class="er entityLabel">BOOLEAN</text><rect height="22" width="80.85554504394531" y="112" x="0" class="er attributeBoxOdd"/><text style="dominant-baseline: middle; font-size: 10.2px;" transform="translate(5,123)" y="0" x="0" id="text-entity-SETTINGS-0bd4bbb4-2bd9-5599-bc1e-011c9f460522-attr-5-type" class="er entityLabel">organization_id</text><rect height="22" width="52.6875" y="112" x="80.85554504394531" class="er attributeBoxOdd"/><text style="dominant-baseline: middle; font-size: 10.2px;" transform="translate(85.85554504394531,123)" y="0" x="0" id="text-entity-SETTINGS-0bd4bbb4-2bd9-5599-bc1e-011c9f460522-attr-5-name" class="er entityLabel">UUID</text></g><rect height="14" width="39.7578125" y="238.89059448242188" x="400.9341735839844" class="er relationshipLabelBox"/><text style="text-anchor: middle; dominant-baseline: middle; font-size: 12px;" y="245.89059448242188" x="420.8130798339844" id="rel1" class="er relationshipLabel">creates</text><rect height="14" width="56.01953125" y="473.30572509765625" x="-122.02275848388672" class="er relationshipLabelBox"/><text style="text-anchor: middle; dominant-baseline: middle; font-size: 12px;" y="480.30572509765625" x="-94.01299285888672" id="rel2" class="er relationshipLabel">belongs to</text><rect height="14" width="44.5390625" y="318.933837890625" x="898.2066650390625" class="er relationshipLabelBox"/><text style="text-anchor: middle; dominant-baseline: middle; font-size: 12px;" y="325.933837890625" x="920.4761962890625" id="rel3" class="er relationshipLabel">receives</text><rect height="14" width="17.861328125" y="178.94493103027344" x="126.78480529785156" class="er relationshipLabelBox"/><text style="text-anchor: middle; dominant-baseline: middle; font-size: 12px;" y="185.94493103027344" x="135.71546936035156" id="rel4" class="er relationshipLabel">has</text><rect height="14" width="44.978515625" y="540.3301391601562" x="687.2255249023438" class="er relationshipLabelBox"/><text style="text-anchor: middle; dominant-baseline: middle; font-size: 12px;" y="547.3301391601562" x="709.7147827148438" id="rel5" class="er relationshipLabel">contains</text><rect height="14" width="17.861328125" y="770.0283203125" x="307.9989318847656" class="er relationshipLabelBox"/><text style="text-anchor: middle; dominant-baseline: middle; font-size: 12px;" y="777.0283203125" x="316.9295959472656" id="rel6" class="er relationshipLabel">has</text><rect height="14" width="31.23828125" y="775.4317016601562" x="852.447998046875" class="er relationshipLabelBox"/><text style="text-anchor: middle; dominant-baseline: middle; font-size: 12px;" y="782.4317016601562" x="868.067138671875" id="rel7" class="er relationshipLabel">issues</text><rect height="14" width="65.810546875" y="188.6427001953125" x="537.883544921875" class="er relationshipLabelBox"/><text style="text-anchor: middle; dominant-baseline: middle; font-size: 12px;" y="195.6427001953125" x="570.788818359375" id="rel8" class="er relationshipLabel">authored by</text><rect height="14" width="10.421875" y="588.2730102539062" x="479.4566650390625" class="er relationshipLabelBox"/><text style="text-anchor: middle; dominant-baseline: middle; font-size: 12px;" y="595.2730102539062" x="484.6676025390625" id="rel9" class="er relationshipLabel">in</text><rect height="14" width="16.875" y="525.6815185546875" x="269.5245056152344" class="er relationshipLabelBox"/><text style="text-anchor: middle; dominant-baseline: middle; font-size: 12px;" y="532.6815185546875" x="277.9620056152344" id="rel10" class="er relationshipLabel">for</text><rect height="14" width="10.421875" y="860.2745971679688" x="463.07012939453125" class="er relationshipLabelBox"/><text style="text-anchor: middle; dominant-baseline: middle; font-size: 12px;" y="867.2745971679688" x="468.28106689453125" id="rel11" class="er relationshipLabel">in</text><rect height="14" width="16.875" y="246.3216552734375" x="1033.7548828125" class="er relationshipLabelBox"/><text style="text-anchor: middle; dominant-baseline: middle; font-size: 12px;" y="253.3216552734375" x="1042.1923828125" id="rel12" class="er relationshipLabel">for</text><rect height="14" width="11.7578125" y="767.6317138671875" x="943.3823852539062" class="er relationshipLabelBox"/><text style="text-anchor: middle; dominant-baseline: middle; font-size: 12px;" y="774.6317138671875" x="949.2612915039062" id="rel13" class="er relationshipLabel">to</text><rect height="14" width="56.01953125" y="194.535888671875" x="152.99942016601562" class="er relationshipLabelBox"/><text style="text-anchor: middle; dominant-baseline: middle; font-size: 12px;" y="201.535888671875" x="181.00918579101562" id="rel14" class="er relationshipLabel">belongs to</text><rect height="14" width="16.875" y="556.6339721679688" x="694.642578125" class="er relationshipLabelBox"/><text style="text-anchor: middle; dominant-baseline: middle; font-size: 12px;" y="563.6339721679688" x="703.080078125" id="rel15" class="er relationshipLabel">for</text></svg>