<svg aria-roledescription="er" role="graphics-document document" viewBox="-142.02275848388672 0 1066.4447021484375 1030" style="max-width: 1066.44px; background-color: white;" xmlns:xlink="http://www.w3.org/1999/xlink" xmlns="http://www.w3.org/2000/svg" width="100%" id="my-svg"><style>#my-svg{font-family:"trebuchet ms",verdana,arial,sans-serif;font-size:16px;fill:#333;}#my-svg .error-icon{fill:#552222;}#my-svg .error-text{fill:#552222;stroke:#552222;}#my-svg .edge-thickness-normal{stroke-width:2px;}#my-svg .edge-thickness-thick{stroke-width:3.5px;}#my-svg .edge-pattern-solid{stroke-dasharray:0;}#my-svg .edge-pattern-dashed{stroke-dasharray:3;}#my-svg .edge-pattern-dotted{stroke-dasharray:2;}#my-svg .marker{fill:#333333;stroke:#333333;}#my-svg .marker.cross{stroke:#333333;}#my-svg svg{font-family:"trebuchet ms",verdana,arial,sans-serif;font-size:16px;}#my-svg .entityBox{fill:#ECECFF;stroke:#9370DB;}#my-svg .attributeBoxOdd{fill:#ffffff;stroke:#9370DB;}#my-svg .attributeBoxEven{fill:#f2f2f2;stroke:#9370DB;}#my-svg .relationshipLabelBox{fill:hsl(80, 100%, 96.2745098039%);opacity:0.7;background-color:hsl(80, 100%, 96.2745098039%);}#my-svg .relationshipLabelBox rect{opacity:0.5;}#my-svg .relationshipLine{stroke:#333333;}#my-svg .entityTitleText{text-anchor:middle;font-size:18px;fill:#333;}#my-svg #MD_PARENT_START{fill:#f5f5f5!important;stroke:#333333!important;stroke-width:1;}#my-svg #MD_PARENT_END{fill:#f5f5f5!important;stroke:#333333!important;stroke-width:1;}#my-svg :root{--mermaid-font-family:"trebuchet ms",verdana,arial,sans-serif;}</style><g/><defs><marker orient="auto" markerHeight="240" markerWidth="190" refY="7" refX="0" id="MD_PARENT_START"><path d="M 18,7 L9,13 L1,7 L9,1 Z"/></marker></defs><defs><marker orient="auto" markerHeight="28" markerWidth="20" refY="7" refX="19" id="MD_PARENT_END"><path d="M 18,7 L9,13 L1,7 L9,1 Z"/></marker></defs><defs><marker orient="auto" markerHeight="18" markerWidth="18" refY="9" refX="0" id="ONLY_ONE_START"><path d="M9,0 L9,18 M15,0 L15,18" fill="none" stroke="gray"/></marker></defs><defs><marker orient="auto" markerHeight="18" markerWidth="18" refY="9" refX="18" id="ONLY_ONE_END"><path d="M3,0 L3,18 M9,0 L9,18" fill="none" stroke="gray"/></marker></defs><defs><marker orient="auto" markerHeight="18" markerWidth="30" refY="9" refX="0" id="ZERO_OR_ONE_START"><circle r="6" cy="9" cx="21" fill="white" stroke="gray"/><path d="M9,0 L9,18" fill="none" stroke="gray"/></marker></defs><defs><marker orient="auto" markerHeight="18" markerWidth="30" refY="9" refX="30" id="ZERO_OR_ONE_END"><circle r="6" cy="9" cx="9" fill="white" stroke="gray"/><path d="M21,0 L21,18" fill="none" stroke="gray"/></marker></defs><defs><marker orient="auto" markerHeight="36" markerWidth="45" refY="18" refX="18" id="ONE_OR_MORE_START"><path d="M0,18 Q 18,0 36,18 Q 18,36 0,18 M42,9 L42,27" fill="none" stroke="gray"/></marker></defs><defs><marker orient="auto" markerHeight="36" markerWidth="45" refY="18" refX="27" id="ONE_OR_MORE_END"><path d="M3,9 L3,27 M9,18 Q27,0 45,18 Q27,36 9,18" fill="none" stroke="gray"/></marker></defs><defs><marker orient="auto" markerHeight="36" markerWidth="57" refY="18" refX="18" id="ZERO_OR_MORE_START"><circle r="6" cy="18" cx="48" fill="white" stroke="gray"/><path d="M0,18 Q18,0 36,18 Q18,36 0,18" fill="none" stroke="gray"/></marker></defs><defs><marker orient="auto" markerHeight="36" markerWidth="57" refY="18" refX="39" id="ZERO_OR_MORE_END"><circle r="6" cy="18" cx="9" fill="white" stroke="gray"/><path d="M21,18 Q39,0 57,18 Q39,36 21,18" fill="none" stroke="gray"/></marker></defs><path style="stroke: gray; fill: none;" marker-start="url(#ONLY_ONE_START)" marker-end="url(#ZERO_OR_MORE_END)" d="M380.126,176L385.699,184.333C391.272,192.667,402.418,209.333,412.271,233.333C422.125,257.333,430.686,288.667,434.966,304.333L439.247,320" class="er relationshipLine"/><path style="stroke: gray; fill: none;" marker-start="url(#ONLY_ONE_START)" marker-end="url(#ZERO_OR_MORE_END)" d="M256.759,119.598L198.297,137.332C139.835,155.066,22.911,190.533,-35.551,238.766C-94.013,287,-94.013,348,-94.013,409C-94.013,470,-94.013,531,-94.013,581C-94.013,631,-94.013,670,-94.013,709C-94.013,748,-94.013,787,-52.774,821.485C-11.535,855.971,70.942,885.942,112.181,900.927L153.419,915.912" class="er relationshipLine"/><path style="stroke: gray; fill: none;" marker-start="url(#ONLY_ONE_START)" marker-end="url(#ZERO_OR_MORE_END)" d="M399.165,126.374L440.832,142.979C482.499,159.583,565.832,192.791,607.499,239.896C649.165,287,649.165,348,649.165,409C649.165,470,649.165,531,649.165,581C649.165,631,649.165,670,649.165,709C649.165,748,649.165,787,661.09,815.801C673.015,844.603,696.864,863.205,708.789,872.507L720.714,881.808" class="er relationshipLine"/><path style="stroke: gray; fill: none;" marker-start="url(#ONLY_ONE_START)" marker-end="url(#ZERO_OR_MORE_END)" d="M256.759,129.868L220.962,145.89C185.165,161.912,113.57,193.956,80.049,218.311C46.529,242.667,51.082,259.333,53.359,267.667L55.636,276" class="er relationshipLine"/><path style="stroke: gray; fill: none;" marker-start="url(#ONLY_ONE_START)" marker-end="url(#ZERO_OR_MORE_END)" d="M492.196,642L495.757,633.667C499.319,625.333,506.441,608.667,505.722,584.667C505.003,560.667,496.442,529.333,492.161,513.667L487.881,498" class="er relationshipLine"/><path style="stroke: gray; fill: none;" marker-start="url(#ONLY_ONE_START)" marker-end="url(#ZERO_OR_MORE_END)" d="M408.479,726.344L355.728,742.954C302.977,759.563,197.476,792.781,156.542,819.557C115.608,846.333,139.241,866.667,151.058,876.833L162.874,887" class="er relationshipLine"/><path style="stroke: gray; fill: none;" marker-start="url(#ONLY_ONE_START)" marker-end="url(#ZERO_OR_MORE_END)" d="M518.649,731.566L557.068,747.305C595.488,763.044,672.326,794.522,714.307,818.594C756.288,842.667,763.41,859.333,766.971,867.667L770.533,876" class="er relationshipLine"/><path style="stroke: gray; fill: none;" marker-start="url(#ZERO_OR_MORE_START)" marker-end="url(#ONLY_ONE_END)" d="M487.881,320L492.161,304.333C496.442,288.667,505.003,257.333,490.217,228.518C475.431,199.702,437.298,173.403,418.232,160.254L399.165,147.105" class="er relationshipLine"/><path style="stroke: gray; fill: none;" marker-start="url(#ZERO_OR_MORE_START)" marker-end="url(#ONLY_ONE_END)" d="M439.247,498L434.966,513.667C430.686,529.333,422.125,560.667,421.406,584.667C420.686,608.667,427.809,625.333,431.37,633.667L434.931,642" class="er relationshipLine"/><path style="stroke: gray; fill: none;" marker-start="url(#ZERO_OR_MORE_START)" marker-end="url(#ONLY_ONE_END)" d="M251.894,887L256.239,876.833C260.583,866.667,269.273,846.333,273.618,816.667C277.962,787,277.962,748,277.962,709C277.962,670,277.962,631,277.962,581C277.962,531,277.962,470,277.962,409C277.962,348,277.962,287,281.218,248.167C284.473,209.333,290.983,192.667,294.238,184.333L297.494,176" class="er relationshipLine"/><path style="stroke: gray; fill: none;" marker-start="url(#ZERO_OR_MORE_START)" marker-end="url(#ONLY_ONE_END)" d="M302.505,905.982L329.348,892.652C356.191,879.321,409.878,852.661,436.721,830.997C463.564,809.333,463.564,792.667,463.564,784.333L463.564,776" class="er relationshipLine"/><path style="stroke: gray; fill: none;" marker-start="url(#ZERO_OR_MORE_START)" marker-end="url(#ONLY_ONE_END)" d="M827.798,876L831.359,867.667C834.92,859.333,842.043,842.667,845.604,814.833C849.165,787,849.165,748,849.165,709C849.165,670,849.165,631,849.165,581C849.165,531,849.165,470,849.165,409C849.165,348,849.165,287,774.165,238.081C699.165,189.162,549.165,152.324,474.165,133.905L399.165,115.486" class="er relationshipLine"/><path style="stroke: gray; fill: none;" marker-start="url(#ZERO_OR_MORE_START)" marker-end="url(#ONLY_ONE_END)" d="M877.616,881.808L889.541,872.507C901.466,863.205,925.316,844.603,865.488,818.013C805.66,791.424,662.154,756.848,590.401,739.56L518.649,722.272" class="er relationshipLine"/><path style="stroke: gray; fill: none;" marker-start="url(#ZERO_OR_MORE_START)" marker-end="url(#ONLY_ONE_END)" d="M128.314,276L130.591,267.667C132.867,259.333,137.421,242.667,158.829,221.167C180.236,199.668,218.498,173.335,237.629,160.169L256.759,147.003" class="er relationshipLine"/><g transform="translate(256.75940704345703,20 )" id="entity-USERS-1e82e395-936c-57a7-8ba9-b08f03574b93"><rect height="156" width="142.40579223632812" y="0" x="0" class="er entityBox"/><text style="dominant-baseline: middle; text-anchor: middle; font-size: 12px;" transform="translate(71.20289611816406,12)" y="0" x="0" id="text-entity-USERS-1e82e395-936c-57a7-8ba9-b08f03574b93" class="er entityLabel">USERS</text><rect height="22" width="80.85554504394531" y="24" x="0" class="er attributeBoxOdd"/><text style="dominant-baseline: middle; font-size: 10.2px;" transform="translate(5,35)" y="0" x="0" id="text-entity-USERS-1e82e395-936c-57a7-8ba9-b08f03574b93-attr-1-type" class="er entityLabel">id</text><rect height="22" width="61.55024719238281" y="24" x="80.85554504394531" class="er attributeBoxOdd"/><text style="dominant-baseline: middle; font-size: 10.2px;" transform="translate(85.85554504394531,35)" y="0" x="0" id="text-entity-USERS-1e82e395-936c-57a7-8ba9-b08f03574b93-attr-1-name" class="er entityLabel">UUID</text><rect height="22" width="80.85554504394531" y="46" x="0" class="er attributeBoxEven"/><text style="dominant-baseline: middle; font-size: 10.2px;" transform="translate(5,57)" y="0" x="0" id="text-entity-USERS-1e82e395-936c-57a7-8ba9-b08f03574b93-attr-2-type" class="er entityLabel">name</text><rect height="22" width="61.55024719238281" y="46" x="80.85554504394531" class="er attributeBoxEven"/><text style="dominant-baseline: middle; font-size: 10.2px;" transform="translate(85.85554504394531,57)" y="0" x="0" id="text-entity-USERS-1e82e395-936c-57a7-8ba9-b08f03574b93-attr-2-name" class="er entityLabel">TEXT</text><rect height="22" width="80.85554504394531" y="68" x="0" class="er attributeBoxOdd"/><text style="dominant-baseline: middle; font-size: 10.2px;" transform="translate(5,79)" y="0" x="0" id="text-entity-USERS-1e82e395-936c-57a7-8ba9-b08f03574b93-attr-3-type" class="er entityLabel">email</text><rect height="22" width="61.55024719238281" y="68" x="80.85554504394531" class="er attributeBoxOdd"/><text style="dominant-baseline: middle; font-size: 10.2px;" transform="translate(85.85554504394531,79)" y="0" x="0" id="text-entity-USERS-1e82e395-936c-57a7-8ba9-b08f03574b93-attr-3-name" class="er entityLabel">TEXT</text><rect height="22" width="80.85554504394531" y="90" x="0" class="er attributeBoxEven"/><text style="dominant-baseline: middle; font-size: 10.2px;" transform="translate(5,101)" y="0" x="0" id="text-entity-USERS-1e82e395-936c-57a7-8ba9-b08f03574b93-attr-4-type" class="er entityLabel">emailVerified</text><rect height="22" width="61.55024719238281" y="90" x="80.85554504394531" class="er attributeBoxEven"/><text style="dominant-baseline: middle; font-size: 10.2px;" transform="translate(85.85554504394531,101)" y="0" x="0" id="text-entity-USERS-1e82e395-936c-57a7-8ba9-b08f03574b93-attr-4-name" class="er entityLabel">TIMESTAMP</text><rect height="22" width="80.85554504394531" y="112" x="0" class="er attributeBoxOdd"/><text style="dominant-baseline: middle; font-size: 10.2px;" transform="translate(5,123)" y="0" x="0" id="text-entity-USERS-1e82e395-936c-57a7-8ba9-b08f03574b93-attr-5-type" class="er entityLabel">organization_id</text><rect height="22" width="61.55024719238281" y="112" x="80.85554504394531" class="er attributeBoxOdd"/><text style="dominant-baseline: middle; font-size: 10.2px;" transform="translate(85.85554504394531,123)" y="0" x="0" id="text-entity-USERS-1e82e395-936c-57a7-8ba9-b08f03574b93-attr-5-name" class="er entityLabel">UUID</text><rect height="22" width="80.85554504394531" y="134" x="0" class="er attributeBoxEven"/><text style="dominant-baseline: middle; font-size: 10.2px;" transform="translate(5,145)" y="0" x="0" id="text-entity-USERS-1e82e395-936c-57a7-8ba9-b08f03574b93-attr-6-type" class="er entityLabel">image</text><rect height="22" width="61.55024719238281" y="134" x="80.85554504394531" class="er attributeBoxEven"/><text style="dominant-baseline: middle; font-size: 10.2px;" transform="translate(85.85554504394531,145)" y="0" x="0" id="text-entity-USERS-1e82e395-936c-57a7-8ba9-b08f03574b93-attr-6-name" class="er entityLabel">TEXT</text></g><g transform="translate(408.4787902832031,642 )" id="entity-ORGANIZATION-a3e762df-85cf-52a9-a67f-c9cd8f228ee5"><rect height="134" width="110.169921875" y="0" x="0" class="er entityBox"/><text style="dominant-baseline: middle; text-anchor: middle; font-size: 12px;" transform="translate(55.0849609375,12)" y="0" x="0" id="text-entity-ORGANIZATION-a3e762df-85cf-52a9-a67f-c9cd8f228ee5" class="er entityLabel">ORGANIZATION</text><rect height="22" width="68.75685119628906" y="24" x="0" class="er attributeBoxOdd"/><text style="dominant-baseline: middle; font-size: 10.2px;" transform="translate(5,35)" y="0" x="0" id="text-entity-ORGANIZATION-a3e762df-85cf-52a9-a67f-c9cd8f228ee5-attr-1-type" class="er entityLabel">id</text><rect height="22" width="41.41307067871094" y="24" x="68.75685119628906" class="er attributeBoxOdd"/><text style="dominant-baseline: middle; font-size: 10.2px;" transform="translate(73.75685119628906,35)" y="0" x="0" id="text-entity-ORGANIZATION-a3e762df-85cf-52a9-a67f-c9cd8f228ee5-attr-1-name" class="er entityLabel">UUID</text><rect height="22" width="68.75685119628906" y="46" x="0" class="er attributeBoxEven"/><text style="dominant-baseline: middle; font-size: 10.2px;" transform="translate(5,57)" y="0" x="0" id="text-entity-ORGANIZATION-a3e762df-85cf-52a9-a67f-c9cd8f228ee5-attr-2-type" class="er entityLabel">name</text><rect height="22" width="41.41307067871094" y="46" x="68.75685119628906" class="er attributeBoxEven"/><text style="dominant-baseline: middle; font-size: 10.2px;" transform="translate(73.75685119628906,57)" y="0" x="0" id="text-entity-ORGANIZATION-a3e762df-85cf-52a9-a67f-c9cd8f228ee5-attr-2-name" class="er entityLabel">TEXT</text><rect height="22" width="68.75685119628906" y="68" x="0" class="er attributeBoxOdd"/><text style="dominant-baseline: middle; font-size: 10.2px;" transform="translate(5,79)" y="0" x="0" id="text-entity-ORGANIZATION-a3e762df-85cf-52a9-a67f-c9cd8f228ee5-attr-3-type" class="er entityLabel">slug</text><rect height="22" width="41.41307067871094" y="68" x="68.75685119628906" class="er attributeBoxOdd"/><text style="dominant-baseline: middle; font-size: 10.2px;" transform="translate(73.75685119628906,79)" y="0" x="0" id="text-entity-ORGANIZATION-a3e762df-85cf-52a9-a67f-c9cd8f228ee5-attr-3-name" class="er entityLabel">TEXT</text><rect height="22" width="68.75685119628906" y="90" x="0" class="er attributeBoxEven"/><text style="dominant-baseline: middle; font-size: 10.2px;" transform="translate(5,101)" y="0" x="0" id="text-entity-ORGANIZATION-a3e762df-85cf-52a9-a67f-c9cd8f228ee5-attr-4-type" class="er entityLabel">description</text><rect height="22" width="41.41307067871094" y="90" x="68.75685119628906" class="er attributeBoxEven"/><text style="dominant-baseline: middle; font-size: 10.2px;" transform="translate(73.75685119628906,101)" y="0" x="0" id="text-entity-ORGANIZATION-a3e762df-85cf-52a9-a67f-c9cd8f228ee5-attr-4-name" class="er entityLabel">TEXT</text><rect height="22" width="68.75685119628906" y="112" x="0" class="er attributeBoxOdd"/><text style="dominant-baseline: middle; font-size: 10.2px;" transform="translate(5,123)" y="0" x="0" id="text-entity-ORGANIZATION-a3e762df-85cf-52a9-a67f-c9cd8f228ee5-attr-5-type" class="er entityLabel">otp</text><rect height="22" width="41.41307067871094" y="112" x="68.75685119628906" class="er attributeBoxOdd"/><text style="dominant-baseline: middle; font-size: 10.2px;" transform="translate(73.75685119628906,123)" y="0" x="0" id="text-entity-ORGANIZATION-a3e762df-85cf-52a9-a67f-c9cd8f228ee5-attr-5-name" class="er entityLabel">TEXT</text></g><g transform="translate(153.4193344116211,887 )" id="entity-USERORGANIZATIONS-3ec282ac-190c-5a44-a928-17bdf326c7bc"><rect height="112" width="149.0859375" y="0" x="0" class="er entityBox"/><text style="dominant-baseline: middle; text-anchor: middle; font-size: 12px;" transform="translate(74.54296875,12)" y="0" x="0" id="text-entity-USERORGANIZATIONS-3ec282ac-190c-5a44-a928-17bdf326c7bc" class="er entityLabel">USER_ORGANIZATIONS</text><rect height="22" width="97.939208984375" y="24" x="0" class="er attributeBoxOdd"/><text style="dominant-baseline: middle; font-size: 10.2px;" transform="translate(5,35)" y="0" x="0" id="text-entity-USERORGANIZATIONS-3ec282ac-190c-5a44-a928-17bdf326c7bc-attr-1-type" class="er entityLabel">id</text><rect height="22" width="51.146728515625" y="24" x="97.939208984375" class="er attributeBoxOdd"/><text style="dominant-baseline: middle; font-size: 10.2px;" transform="translate(102.939208984375,35)" y="0" x="0" id="text-entity-USERORGANIZATIONS-3ec282ac-190c-5a44-a928-17bdf326c7bc-attr-1-name" class="er entityLabel">UUID</text><rect height="22" width="97.939208984375" y="46" x="0" class="er attributeBoxEven"/><text style="dominant-baseline: middle; font-size: 10.2px;" transform="translate(5,57)" y="0" x="0" id="text-entity-USERORGANIZATIONS-3ec282ac-190c-5a44-a928-17bdf326c7bc-attr-2-type" class="er entityLabel">user_id</text><rect height="22" width="51.146728515625" y="46" x="97.939208984375" class="er attributeBoxEven"/><text style="dominant-baseline: middle; font-size: 10.2px;" transform="translate(102.939208984375,57)" y="0" x="0" id="text-entity-USERORGANIZATIONS-3ec282ac-190c-5a44-a928-17bdf326c7bc-attr-2-name" class="er entityLabel">UUID</text><rect height="22" width="97.939208984375" y="68" x="0" class="er attributeBoxOdd"/><text style="dominant-baseline: middle; font-size: 10.2px;" transform="translate(5,79)" y="0" x="0" id="text-entity-USERORGANIZATIONS-3ec282ac-190c-5a44-a928-17bdf326c7bc-attr-3-type" class="er entityLabel">organization_id</text><rect height="22" width="51.146728515625" y="68" x="97.939208984375" class="er attributeBoxOdd"/><text style="dominant-baseline: middle; font-size: 10.2px;" transform="translate(102.939208984375,79)" y="0" x="0" id="text-entity-USERORGANIZATIONS-3ec282ac-190c-5a44-a928-17bdf326c7bc-attr-3-name" class="er entityLabel">UUID</text><rect height="22" width="97.939208984375" y="90" x="0" class="er attributeBoxEven"/><text style="dominant-baseline: middle; font-size: 10.2px;" transform="translate(5,101)" y="0" x="0" id="text-entity-USERORGANIZATIONS-3ec282ac-190c-5a44-a928-17bdf326c7bc-attr-4-type" class="er entityLabel">role</text><rect height="22" width="51.146728515625" y="90" x="97.939208984375" class="er attributeBoxEven"/><text style="dominant-baseline: middle; font-size: 10.2px;" transform="translate(102.939208984375,101)" y="0" x="0" id="text-entity-USERORGANIZATIONS-3ec282ac-190c-5a44-a928-17bdf326c7bc-attr-4-name" class="er entityLabel">TEXT</text></g><g transform="translate(392.36085510253906,320 )" id="entity-POSTS-8b9e29bd-1bb5-5e7b-b4e1-8fd7a8ad1a35"><rect height="178" width="142.40579223632812" y="0" x="0" class="er entityBox"/><text style="dominant-baseline: middle; text-anchor: middle; font-size: 12px;" transform="translate(71.20289611816406,12)" y="0" x="0" id="text-entity-POSTS-8b9e29bd-1bb5-5e7b-b4e1-8fd7a8ad1a35" class="er entityLabel">POSTS</text><rect height="22" width="80.85554504394531" y="24" x="0" class="er attributeBoxOdd"/><text style="dominant-baseline: middle; font-size: 10.2px;" transform="translate(5,35)" y="0" x="0" id="text-entity-POSTS-8b9e29bd-1bb5-5e7b-b4e1-8fd7a8ad1a35-attr-1-type" class="er entityLabel">id</text><rect height="22" width="61.55024719238281" y="24" x="80.85554504394531" class="er attributeBoxOdd"/><text style="dominant-baseline: middle; font-size: 10.2px;" transform="translate(85.85554504394531,35)" y="0" x="0" id="text-entity-POSTS-8b9e29bd-1bb5-5e7b-b4e1-8fd7a8ad1a35-attr-1-name" class="er entityLabel">UUID</text><rect height="22" width="80.85554504394531" y="46" x="0" class="er attributeBoxEven"/><text style="dominant-baseline: middle; font-size: 10.2px;" transform="translate(5,57)" y="0" x="0" id="text-entity-POSTS-8b9e29bd-1bb5-5e7b-b4e1-8fd7a8ad1a35-attr-2-type" class="er entityLabel">content</text><rect height="22" width="61.55024719238281" y="46" x="80.85554504394531" class="er attributeBoxEven"/><text style="dominant-baseline: middle; font-size: 10.2px;" transform="translate(85.85554504394531,57)" y="0" x="0" id="text-entity-POSTS-8b9e29bd-1bb5-5e7b-b4e1-8fd7a8ad1a35-attr-2-name" class="er entityLabel">TEXT</text><rect height="22" width="80.85554504394531" y="68" x="0" class="er attributeBoxOdd"/><text style="dominant-baseline: middle; font-size: 10.2px;" transform="translate(5,79)" y="0" x="0" id="text-entity-POSTS-8b9e29bd-1bb5-5e7b-b4e1-8fd7a8ad1a35-attr-3-type" class="er entityLabel">timestamp</text><rect height="22" width="61.55024719238281" y="68" x="80.85554504394531" class="er attributeBoxOdd"/><text style="dominant-baseline: middle; font-size: 10.2px;" transform="translate(85.85554504394531,79)" y="0" x="0" id="text-entity-POSTS-8b9e29bd-1bb5-5e7b-b4e1-8fd7a8ad1a35-attr-3-name" class="er entityLabel">TIMESTAMP</text><rect height="22" width="80.85554504394531" y="90" x="0" class="er attributeBoxEven"/><text style="dominant-baseline: middle; font-size: 10.2px;" transform="translate(5,101)" y="0" x="0" id="text-entity-POSTS-8b9e29bd-1bb5-5e7b-b4e1-8fd7a8ad1a35-attr-4-type" class="er entityLabel">status</text><rect height="22" width="61.55024719238281" y="90" x="80.85554504394531" class="er attributeBoxEven"/><text style="dominant-baseline: middle; font-size: 10.2px;" transform="translate(85.85554504394531,101)" y="0" x="0" id="text-entity-POSTS-8b9e29bd-1bb5-5e7b-b4e1-8fd7a8ad1a35-attr-4-name" class="er entityLabel">BOOLEAN</text><rect height="22" width="80.85554504394531" y="112" x="0" class="er attributeBoxOdd"/><text style="dominant-baseline: middle; font-size: 10.2px;" transform="translate(5,123)" y="0" x="0" id="text-entity-POSTS-8b9e29bd-1bb5-5e7b-b4e1-8fd7a8ad1a35-attr-5-type" class="er entityLabel">organization_id</text><rect height="22" width="61.55024719238281" y="112" x="80.85554504394531" class="er attributeBoxOdd"/><text style="dominant-baseline: middle; font-size: 10.2px;" transform="translate(85.85554504394531,123)" y="0" x="0" id="text-entity-POSTS-8b9e29bd-1bb5-5e7b-b4e1-8fd7a8ad1a35-attr-5-name" class="er entityLabel">UUID</text><rect height="22" width="80.85554504394531" y="134" x="0" class="er attributeBoxEven"/><text style="dominant-baseline: middle; font-size: 10.2px;" transform="translate(5,145)" y="0" x="0" id="text-entity-POSTS-8b9e29bd-1bb5-5e7b-b4e1-8fd7a8ad1a35-attr-6-type" class="er entityLabel">updatedBy</text><rect height="22" width="61.55024719238281" y="134" x="80.85554504394531" class="er attributeBoxEven"/><text style="dominant-baseline: middle; font-size: 10.2px;" transform="translate(85.85554504394531,145)" y="0" x="0" id="text-entity-POSTS-8b9e29bd-1bb5-5e7b-b4e1-8fd7a8ad1a35-attr-6-name" class="er entityLabel">UUID</text><rect height="22" width="80.85554504394531" y="156" x="0" class="er attributeBoxOdd"/><text style="dominant-baseline: middle; font-size: 10.2px;" transform="translate(5,167)" y="0" x="0" id="text-entity-POSTS-8b9e29bd-1bb5-5e7b-b4e1-8fd7a8ad1a35-attr-7-type" class="er entityLabel">user_id</text><rect height="22" width="61.55024719238281" y="156" x="80.85554504394531" class="er attributeBoxOdd"/><text style="dominant-baseline: middle; font-size: 10.2px;" transform="translate(85.85554504394531,167)" y="0" x="0" id="text-entity-POSTS-8b9e29bd-1bb5-5e7b-b4e1-8fd7a8ad1a35-attr-7-name" class="er entityLabel">UUID</text></g><g transform="translate(20,276 )" id="entity-ACCOUNTS-ab5fcd47-121e-5e80-a051-e8e442829b86"><rect height="266" width="143.94973754882812" y="0" x="0" class="er entityBox"/><text style="dominant-baseline: middle; text-anchor: middle; font-size: 12px;" transform="translate(71.97486877441406,12)" y="0" x="0" id="text-entity-ACCOUNTS-ab5fcd47-121e-5e80-a051-e8e442829b86" class="er entityLabel">ACCOUNTS</text><rect height="22" width="93.85456848144531" y="24" x="0" class="er attributeBoxOdd"/><text style="dominant-baseline: middle; font-size: 10.2px;" transform="translate(5,35)" y="0" x="0" id="text-entity-ACCOUNTS-ab5fcd47-121e-5e80-a051-e8e442829b86-attr-1-type" class="er entityLabel">userId</text><rect height="22" width="50.09516906738281" y="24" x="93.85456848144531" class="er attributeBoxOdd"/><text style="dominant-baseline: middle; font-size: 10.2px;" transform="translate(98.85456848144531,35)" y="0" x="0" id="text-entity-ACCOUNTS-ab5fcd47-121e-5e80-a051-e8e442829b86-attr-1-name" class="er entityLabel">UUID</text><rect height="22" width="93.85456848144531" y="46" x="0" class="er attributeBoxEven"/><text style="dominant-baseline: middle; font-size: 10.2px;" transform="translate(5,57)" y="0" x="0" id="text-entity-ACCOUNTS-ab5fcd47-121e-5e80-a051-e8e442829b86-attr-2-type" class="er entityLabel">type</text><rect height="22" width="50.09516906738281" y="46" x="93.85456848144531" class="er attributeBoxEven"/><text style="dominant-baseline: middle; font-size: 10.2px;" transform="translate(98.85456848144531,57)" y="0" x="0" id="text-entity-ACCOUNTS-ab5fcd47-121e-5e80-a051-e8e442829b86-attr-2-name" class="er entityLabel">TEXT</text><rect height="22" width="93.85456848144531" y="68" x="0" class="er attributeBoxOdd"/><text style="dominant-baseline: middle; font-size: 10.2px;" transform="translate(5,79)" y="0" x="0" id="text-entity-ACCOUNTS-ab5fcd47-121e-5e80-a051-e8e442829b86-attr-3-type" class="er entityLabel">provider</text><rect height="22" width="50.09516906738281" y="68" x="93.85456848144531" class="er attributeBoxOdd"/><text style="dominant-baseline: middle; font-size: 10.2px;" transform="translate(98.85456848144531,79)" y="0" x="0" id="text-entity-ACCOUNTS-ab5fcd47-121e-5e80-a051-e8e442829b86-attr-3-name" class="er entityLabel">TEXT</text><rect height="22" width="93.85456848144531" y="90" x="0" class="er attributeBoxEven"/><text style="dominant-baseline: middle; font-size: 10.2px;" transform="translate(5,101)" y="0" x="0" id="text-entity-ACCOUNTS-ab5fcd47-121e-5e80-a051-e8e442829b86-attr-4-type" class="er entityLabel">providerAccountId</text><rect height="22" width="50.09516906738281" y="90" x="93.85456848144531" class="er attributeBoxEven"/><text style="dominant-baseline: middle; font-size: 10.2px;" transform="translate(98.85456848144531,101)" y="0" x="0" id="text-entity-ACCOUNTS-ab5fcd47-121e-5e80-a051-e8e442829b86-attr-4-name" class="er entityLabel">TEXT</text><rect height="22" width="93.85456848144531" y="112" x="0" class="er attributeBoxOdd"/><text style="dominant-baseline: middle; font-size: 10.2px;" transform="translate(5,123)" y="0" x="0" id="text-entity-ACCOUNTS-ab5fcd47-121e-5e80-a051-e8e442829b86-attr-5-type" class="er entityLabel">refresh_token</text><rect height="22" width="50.09516906738281" y="112" x="93.85456848144531" class="er attributeBoxOdd"/><text style="dominant-baseline: middle; font-size: 10.2px;" transform="translate(98.85456848144531,123)" y="0" x="0" id="text-entity-ACCOUNTS-ab5fcd47-121e-5e80-a051-e8e442829b86-attr-5-name" class="er entityLabel">TEXT</text><rect height="22" width="93.85456848144531" y="134" x="0" class="er attributeBoxEven"/><text style="dominant-baseline: middle; font-size: 10.2px;" transform="translate(5,145)" y="0" x="0" id="text-entity-ACCOUNTS-ab5fcd47-121e-5e80-a051-e8e442829b86-attr-6-type" class="er entityLabel">access_token</text><rect height="22" width="50.09516906738281" y="134" x="93.85456848144531" class="er attributeBoxEven"/><text style="dominant-baseline: middle; font-size: 10.2px;" transform="translate(98.85456848144531,145)" y="0" x="0" id="text-entity-ACCOUNTS-ab5fcd47-121e-5e80-a051-e8e442829b86-attr-6-name" class="er entityLabel">TEXT</text><rect height="22" width="93.85456848144531" y="156" x="0" class="er attributeBoxOdd"/><text style="dominant-baseline: middle; font-size: 10.2px;" transform="translate(5,167)" y="0" x="0" id="text-entity-ACCOUNTS-ab5fcd47-121e-5e80-a051-e8e442829b86-attr-7-type" class="er entityLabel">expires_at</text><rect height="22" width="50.09516906738281" y="156" x="93.85456848144531" class="er attributeBoxOdd"/><text style="dominant-baseline: middle; font-size: 10.2px;" transform="translate(98.85456848144531,167)" y="0" x="0" id="text-entity-ACCOUNTS-ab5fcd47-121e-5e80-a051-e8e442829b86-attr-7-name" class="er entityLabel">INTEGER</text><rect height="22" width="93.85456848144531" y="178" x="0" class="er attributeBoxEven"/><text style="dominant-baseline: middle; font-size: 10.2px;" transform="translate(5,189)" y="0" x="0" id="text-entity-ACCOUNTS-ab5fcd47-121e-5e80-a051-e8e442829b86-attr-8-type" class="er entityLabel">token_type</text><rect height="22" width="50.09516906738281" y="178" x="93.85456848144531" class="er attributeBoxEven"/><text style="dominant-baseline: middle; font-size: 10.2px;" transform="translate(98.85456848144531,189)" y="0" x="0" id="text-entity-ACCOUNTS-ab5fcd47-121e-5e80-a051-e8e442829b86-attr-8-name" class="er entityLabel">TEXT</text><rect height="22" width="93.85456848144531" y="200" x="0" class="er attributeBoxOdd"/><text style="dominant-baseline: middle; font-size: 10.2px;" transform="translate(5,211)" y="0" x="0" id="text-entity-ACCOUNTS-ab5fcd47-121e-5e80-a051-e8e442829b86-attr-9-type" class="er entityLabel">scope</text><rect height="22" width="50.09516906738281" y="200" x="93.85456848144531" class="er attributeBoxOdd"/><text style="dominant-baseline: middle; font-size: 10.2px;" transform="translate(98.85456848144531,211)" y="0" x="0" id="text-entity-ACCOUNTS-ab5fcd47-121e-5e80-a051-e8e442829b86-attr-9-name" class="er entityLabel">TEXT</text><rect height="22" width="93.85456848144531" y="222" x="0" class="er attributeBoxEven"/><text style="dominant-baseline: middle; font-size: 10.2px;" transform="translate(5,233)" y="0" x="0" id="text-entity-ACCOUNTS-ab5fcd47-121e-5e80-a051-e8e442829b86-attr-10-type" class="er entityLabel">id_token</text><rect height="22" width="50.09516906738281" y="222" x="93.85456848144531" class="er attributeBoxEven"/><text style="dominant-baseline: middle; font-size: 10.2px;" transform="translate(98.85456848144531,233)" y="0" x="0" id="text-entity-ACCOUNTS-ab5fcd47-121e-5e80-a051-e8e442829b86-attr-10-name" class="er entityLabel">TEXT</text><rect height="22" width="93.85456848144531" y="244" x="0" class="er attributeBoxOdd"/><text style="dominant-baseline: middle; font-size: 10.2px;" transform="translate(5,255)" y="0" x="0" id="text-entity-ACCOUNTS-ab5fcd47-121e-5e80-a051-e8e442829b86-attr-11-type" class="er entityLabel">session_state</text><rect height="22" width="50.09516906738281" y="244" x="93.85456848144531" class="er attributeBoxOdd"/><text style="dominant-baseline: middle; font-size: 10.2px;" transform="translate(98.85456848144531,255)" y="0" x="0" id="text-entity-ACCOUNTS-ab5fcd47-121e-5e80-a051-e8e442829b86-attr-11-name" class="er entityLabel">TEXT</text></g><g transform="translate(720.7140274047852,876 )" id="entity-ORGANIZATIONINVITES-d58c55bb-0f59-5be5-85d7-fb1f587ab04f"><rect height="134" width="156.90234375" y="0" x="0" class="er entityBox"/><text style="dominant-baseline: middle; text-anchor: middle; font-size: 12px;" transform="translate(78.451171875,12)" y="0" x="0" id="text-entity-ORGANIZATIONINVITES-d58c55bb-0f59-5be5-85d7-fb1f587ab04f" class="er entityLabel">ORGANIZATION_INVITES</text><rect height="22" width="88.10382080078125" y="24" x="0" class="er attributeBoxOdd"/><text style="dominant-baseline: middle; font-size: 10.2px;" transform="translate(5,35)" y="0" x="0" id="text-entity-ORGANIZATIONINVITES-d58c55bb-0f59-5be5-85d7-fb1f587ab04f-attr-1-type" class="er entityLabel">id</text><rect height="22" width="68.79852294921875" y="24" x="88.10382080078125" class="er attributeBoxOdd"/><text style="dominant-baseline: middle; font-size: 10.2px;" transform="translate(93.10382080078125,35)" y="0" x="0" id="text-entity-ORGANIZATIONINVITES-d58c55bb-0f59-5be5-85d7-fb1f587ab04f-attr-1-name" class="er entityLabel">UUID</text><rect height="22" width="88.10382080078125" y="46" x="0" class="er attributeBoxEven"/><text style="dominant-baseline: middle; font-size: 10.2px;" transform="translate(5,57)" y="0" x="0" id="text-entity-ORGANIZATIONINVITES-d58c55bb-0f59-5be5-85d7-fb1f587ab04f-attr-2-type" class="er entityLabel">user_id</text><rect height="22" width="68.79852294921875" y="46" x="88.10382080078125" class="er attributeBoxEven"/><text style="dominant-baseline: middle; font-size: 10.2px;" transform="translate(93.10382080078125,57)" y="0" x="0" id="text-entity-ORGANIZATIONINVITES-d58c55bb-0f59-5be5-85d7-fb1f587ab04f-attr-2-name" class="er entityLabel">UUID</text><rect height="22" width="88.10382080078125" y="68" x="0" class="er attributeBoxOdd"/><text style="dominant-baseline: middle; font-size: 10.2px;" transform="translate(5,79)" y="0" x="0" id="text-entity-ORGANIZATIONINVITES-d58c55bb-0f59-5be5-85d7-fb1f587ab04f-attr-3-type" class="er entityLabel">organization_id</text><rect height="22" width="68.79852294921875" y="68" x="88.10382080078125" class="er attributeBoxOdd"/><text style="dominant-baseline: middle; font-size: 10.2px;" transform="translate(93.10382080078125,79)" y="0" x="0" id="text-entity-ORGANIZATIONINVITES-d58c55bb-0f59-5be5-85d7-fb1f587ab04f-attr-3-name" class="er entityLabel">UUID</text><rect height="22" width="88.10382080078125" y="90" x="0" class="er attributeBoxEven"/><text style="dominant-baseline: middle; font-size: 10.2px;" transform="translate(5,101)" y="0" x="0" id="text-entity-ORGANIZATIONINVITES-d58c55bb-0f59-5be5-85d7-fb1f587ab04f-attr-4-type" class="er entityLabel">status</text><rect height="22" width="68.79852294921875" y="90" x="88.10382080078125" class="er attributeBoxEven"/><text style="dominant-baseline: middle; font-size: 10.2px;" transform="translate(93.10382080078125,101)" y="0" x="0" id="text-entity-ORGANIZATIONINVITES-d58c55bb-0f59-5be5-85d7-fb1f587ab04f-attr-4-name" class="er entityLabel">TEXT</text><rect height="22" width="88.10382080078125" y="112" x="0" class="er attributeBoxOdd"/><text style="dominant-baseline: middle; font-size: 10.2px;" transform="translate(5,123)" y="0" x="0" id="text-entity-ORGANIZATIONINVITES-d58c55bb-0f59-5be5-85d7-fb1f587ab04f-attr-5-type" class="er entityLabel">expires_at</text><rect height="22" width="68.79852294921875" y="112" x="88.10382080078125" class="er attributeBoxOdd"/><text style="dominant-baseline: middle; font-size: 10.2px;" transform="translate(93.10382080078125,123)" y="0" x="0" id="text-entity-ORGANIZATIONINVITES-d58c55bb-0f59-5be5-85d7-fb1f587ab04f-attr-5-name" class="er entityLabel">TIMESTAMP</text></g><rect height="14" width="39.7578125" y="237.974365234375" x="396.8837585449219" class="er relationshipLabelBox"/><text style="text-anchor: middle; dominant-baseline: middle; font-size: 12px;" y="244.974365234375" x="416.7626647949219" id="rel1" class="er relationshipLabel">creates</text><rect height="14" width="56.01953125" y="475.888427734375" x="-122.02275848388672" class="er relationshipLabelBox"/><text style="text-anchor: middle; dominant-baseline: middle; font-size: 12px;" y="482.888427734375" x="-94.01299285888672" id="rel2" class="er relationshipLabel">belongs to</text><rect height="14" width="44.5390625" y="442.23992919921875" x="626.8954467773438" class="er relationshipLabelBox"/><text style="text-anchor: middle; dominant-baseline: middle; font-size: 12px;" y="449.23992919921875" x="649.1649780273438" id="rel3" class="er relationshipLabel">receives</text><rect height="14" width="17.861328125" y="178.94493103027344" x="126.78480529785156" class="er relationshipLabelBox"/><text style="text-anchor: middle; dominant-baseline: middle; font-size: 12px;" y="185.94493103027344" x="135.71546936035156" id="rel4" class="er relationshipLabel">has</text><rect height="14" width="44.978515625" y="563.1344604492188" x="482.0286560058594" class="er relationshipLabelBox"/><text style="text-anchor: middle; dominant-baseline: middle; font-size: 12px;" y="570.1344604492188" x="504.5179138183594" id="rel5" class="er relationshipLabel">contains</text><rect height="14" width="17.861328125" y="775.2246704101562" x="229.71852111816406" class="er relationshipLabelBox"/><text style="text-anchor: middle; dominant-baseline: middle; font-size: 12px;" y="782.2246704101562" x="238.64918518066406" id="rel6" class="er relationshipLabel">has</text><rect height="14" width="31.23828125" y="782.1825561523438" x="639.6802368164062" class="er relationshipLabelBox"/><text style="text-anchor: middle; dominant-baseline: middle; font-size: 12px;" y="789.1825561523438" x="655.2993774414062" id="rel7" class="er relationshipLabel">issues</text><rect height="14" width="65.810546875" y="209.1418914794922" x="449.51239013671875" class="er relationshipLabelBox"/><text style="text-anchor: middle; dominant-baseline: middle; font-size: 12px;" y="216.1418914794922" x="482.41766357421875" id="rel8" class="er relationshipLabel">authored by</text><rect height="14" width="10.421875" y="563.13427734375" x="417.3985290527344" class="er relationshipLabelBox"/><text style="text-anchor: middle; dominant-baseline: middle; font-size: 12px;" y="570.13427734375" x="422.6094665527344" id="rel9" class="er relationshipLabel">in</text><rect height="14" width="16.875" y="525.2379150390625" x="269.5245056152344" class="er relationshipLabelBox"/><text style="text-anchor: middle; dominant-baseline: middle; font-size: 12px;" y="532.2379150390625" x="277.9620056152344" id="rel10" class="er relationshipLabel">for</text><rect height="14" width="10.421875" y="848.7374267578125" x="394.1473083496094" class="er relationshipLabelBox"/><text style="text-anchor: middle; dominant-baseline: middle; font-size: 12px;" y="855.7374267578125" x="399.3582458496094" id="rel11" class="er relationshipLabel">in</text><rect height="14" width="16.875" y="340.46630859375" x="837.81005859375" class="er relationshipLabelBox"/><text style="text-anchor: middle; dominant-baseline: middle; font-size: 12px;" y="347.46630859375" x="846.24755859375" id="rel12" class="er relationshipLabel">for</text><rect height="14" width="11.7578125" y="770.2679443359375" x="733.7882080078125" class="er relationshipLabelBox"/><text style="text-anchor: middle; dominant-baseline: middle; font-size: 12px;" y="777.2679443359375" x="739.6671142578125" id="rel13" class="er relationshipLabel">to</text><rect height="14" width="56.01953125" y="194.535888671875" x="152.99942016601562" class="er relationshipLabelBox"/><text style="text-anchor: middle; dominant-baseline: middle; font-size: 12px;" y="201.535888671875" x="181.00918579101562" id="rel14" class="er relationshipLabel">belongs to</text></svg>